#!OML:ASF E:\emotionWalksFemale\Project 1\Capture day 1\Session 1\Female1.ASF
:FULLY-SPECIFIED
:DEGREES
976
root 8.47489 15.3357 -32.2026 -180.171 -6.17965 -177.997
lowerback 9.05795 0.434241 -1.59131
upperback -1.29628 0.0113312 -3.68726
thorax -6.45751 -0.0739598 -2.97212
lowerneck -7.2837 12.2884 4.66825
upperneck 2.2826 16.2615 -6.37584
head 2.99454 7.93358 -1.96174
rclavicle -2.74323e-014 5.24792e-014
rhumerus -27.9644 40.5564 -117.686
rradius 39.1555
rwrist 21.3273
rhand -0.296554 -58.3834
rfingers 7.12502
rthumb 25.3063 -446.725
lclavicle -2.74323e-014 5.24792e-014
lhumerus -62.902 -61.433 149.118
lradius 104.97
lwrist 28.122
lhand 22.4407 -26.1991
lfingers 7.12502
lthumb 46.8016 -3.44597
rfemur -25.0471 10.9112 22.2063
rtibia 54.3478
rfoot -13.7219 -0.916204
rtoes -22.436
lfemur -13.8822 -5.48029 -25.5596
ltibia 33.0586
lfoot -22.506 9.28262
ltoes 6.6844
977
root 8.48161 15.3256 -32.2807 -180.169 -7.20168 -177.86
lowerback 9.13884 0.427595 -1.44507
upperback -1.23779 0.0268761 -3.64668
thorax -6.44042 -0.0680734 -3.01453
lowerneck -8.1369 12.4518 4.41763
upperneck 2.93168 16.4809 -5.83652
head 3.30493 8.03213 -1.66054
rclavicle 3.77691e-015 -3.81667e-014
rhumerus -27.5942 40.0308 -117.256
rradius 39.0645
rwrist 22.0902
rhand -0.256711 -57.9965
rfingers 7.12502
rthumb 25.3445 -446.332
lclavicle 3.77691e-015 -3.81667e-014
lhumerus -63.0073 -61.6315 149.332
lradius 104.903
lwrist 28.0849
lhand 21.7001 -26.2474
lfingers 7.12502
lthumb 46.1154 -3.20111
rfemur -25.2829 11.8627 22.0616
rtibia 52.539
rfoot -13.7771 -1.10878
rtoes -22.0266
lfemur -13.7861 -5.73547 -25.3846
ltibia 33.3064
lfoot -22.6668 8.60432
ltoes 6.05647
978
root 8.48716 15.3196 -32.3549 -180.138 -8.27706 -177.707
lowerback 9.13082 0.395589 -1.25085
upperback -1.14709 0.0168758 -3.62189
thorax -6.3396 -0.0765263 -3.09514
lowerneck -7.23012 12.5795 5.31957
upperneck 1.74787 16.6041 -7.11613
head 2.96764 8.09238 -2.29028
rclavicle -7.95139e-015 1.11319e-014
rhumerus -27.2191 39.5664 -116.89
rradius 39.0217
rwrist 22.6323
rhand -0.191706 -57.6633
rfingers 7.12502
rthumb 25.4067 -445.99
lclavicle -7.95139e-015 1.11319e-014
lhumerus -62.8991 -61.9185 149.309
lradius 104.819
lwrist 28.0918
lhand 21.0636 -26.315
lfingers 7.12502
lthumb 45.5245 -3.02506
rfemur -25.5591 12.7781 21.8306
rtibia 50.6521
rfoot -14.4668 -0.963953
rtoes -23.9421
lfemur -13.7406 -6.06523 -25.1925
ltibia 33.5324
lfoot -22.6993 8.08125
ltoes 4.3679
979
root 8.496 15.3163 -32.4292 -180.077 -9.4208 -177.76
lowerback 8.85853 0.316132 -1.32903
upperback -1.07207 -0.0913933 -3.67303
thorax -6.11035 -0.128088 -3.08419
lowerneck -8.60112 12.7179 4.34343
upperneck 2.91658 16.8243 -5.77967
head 3.38952 8.19299 -1.57335
rclavicle -4.37326e-015 1.59028e-014
rhumerus -27.1857 39.3545 -116.988
rradius 38.953
rwrist 22.6207
rhand -0.612335 -57.4806
rfingers 7.12502
rthumb 25.0037 -445.864
lclavicle -4.37326e-015 1.59028e-014
lhumerus -62.674 -62.022 149.007
lradius 104.77
lwrist 28.1434
lhand 20.7685 -26.3846
lfingers 7.12502
lthumb 45.2503 -2.98429
rfemur -25.821 13.7256 21.3432
rtibia 48.7567
rfoot -15.2316 -0.812948
rtoes -26.1671
lfemur -13.7078 -6.50059 -25.1973
ltibia 33.7709
lfoot -22.686 7.27442
ltoes 4.47374
980
root 8.50768 15.3148 -32.5093 -180.053 -10.5997 -177.883
lowerback 8.53158 0.385007 -1.4309
upperback -0.602973 0.0149544 -3.66702
thorax -5.42589 -0.0706173 -3.02234
lowerneck -8.92939 12.8529 4.3977
upperneck 2.69978 16.992 -6.07166
head 3.42157 8.25916 -1.64437
rclavicle 3.07122e-014 3.18055e-014
rhumerus -26.1875 39.6924 -116.129
rradius 38.935
rwrist 22.0045
rhand -0.909892 -57.6907
rfingers 7.12502
rthumb 24.7186 -446.114
lclavicle 3.07122e-014 3.18055e-014
lhumerus -61.9253 -62.9639 148.622
lradius 104.718
lwrist 28.3518
lhand 20.7924 -26.307
lfingers 7.12502
lthumb 45.2725 -2.91555
rfemur -25.9453 14.7756 20.7872
rtibia 46.8684
rfoot -15.5631 -0.601836
rtoes -27.9575
lfemur -13.5747 -6.98223 -25.2647
ltibia 33.9318
lfoot -22.7148 6.39547
ltoes 6.41139
981
root 8.5035 15.3123 -32.5803 -179.727 -11.6327 -177.874
lowerback 7.7553 0.386906 -1.00822
upperback -0.480631 0.0743115 -3.88898
thorax -4.85536 -0.0555596 -3.48962
lowerneck -8.10499 13.0542 5.21815
upperneck 2.08299 17.2171 -6.73816
head 3.22843 8.38481 -2.03512
rclavicle 5.96354e-015 4.77083e-015
rhumerus -25.8576 39.881 -116.195
rradius 38.8226
rwrist 21.563
rhand -0.988911 -57.9186
rfingers 7.12502
rthumb 24.6428 -446.352
lclavicle 5.96354e-015 4.77083e-015
lhumerus -61.8323 -63.1979 148.297
lradius 104.742
lwrist 28.3767
lhand 21.1067 -26.1007
lfingers 7.12502
lthumb 45.5646 -2.82704
rfemur -26.5533 15.7751 20.1348
rtibia 45.0105
rfoot -15.7528 0.160858
rtoes -29.4362
lfemur -13.8226 -7.49752 -25.2293
ltibia 34.0447
lfoot -22.716 5.91265
ltoes 7.88039
982
root 8.52247 15.3103 -32.6622 -180.029 -12.8628 -177.777
lowerback 8.96238 0.438643 -1.20856
upperback -0.856819 0.0936484 -3.671
thorax -5.93339 -0.0377517 -3.17397
lowerneck -8.49716 13.1875 4.96883
upperneck 2.87951 17.4383 -6.50782
head 3.54024 8.47871 -1.85231
rclavicle -2.21645e-014 3.33958e-014
rhumerus -26.5721 39.7069 -116.366
rradius 38.6362
rwrist 21.2914
rhand -1.19684 -57.8037
rfingers 7.12502
rthumb 24.4435 -446.264
lclavicle -2.21645e-014 3.33958e-014
lhumerus -62.4781 -62.5866 149.203
lradius 104.664
lwrist 28.243
lhand 21.3219 -26.1483
lfingers 7.12502
lthumb 45.7645 -2.95634
rfemur -26.3335 17.136 19.8117
rtibia 43.175
rfoot -16.1189 0.511372
rtoes -30.3147
lfemur -13.3236 -7.84714 -25.0544
ltibia 34.1865
lfoot -22.8311 5.07095
ltoes 8.08361
983
root 8.53525 15.3101 -32.7457 -180.003 -14.1543 -177.755
lowerback 8.79709 0.362294 -1.36003
upperback -0.924542 -0.0139057 -3.62376
thorax -5.91591 -0.0831813 -3.02243
lowerneck -7.03623 13.2165 5.83492
upperneck 1.87568 17.4605 -7.5856
head 3.14079 8.51187 -2.4572
rclavicle -2.44505e-014 3.02153e-014
rhumerus -26.8744 39.8326 -116.677
rradius 38.4195
rwrist 21.0068
rhand -1.69759 -57.7023
rfingers 7.12502
rthumb 23.9634 -446.227
lclavicle -2.44505e-014 3.02153e-014
lhumerus -62.2768 -62.2699 148.891
lradius 104.633
lwrist 28.1218
lhand 21.4949 -26.3771
lfingers 7.12502
lthumb 45.9251 -3.25143
rfemur -26.4513 18.4803 19.2181
rtibia 41.4122
rfoot -16.4607 0.875631
rtoes -30.3817
lfemur -13.1869 -8.32067 -24.9596
ltibia 34.3417
lfoot -22.9202 4.39785
ltoes 6.80108
984
root 8.53982 15.3046 -32.8143 -179.754 -15.4399 -177.681
lowerback 8.86715 0.358406 -0.993742
upperback -1.14081 0.00999155 -3.70275
thorax -6.18293 -0.0855696 -3.32161
lowerneck -6.96737 13.3386 6.064
upperneck 2.16994 17.6305 -7.60186
head 3.26925 8.5971 -2.47824
rclavicle -4.14963e-014 7.31528e-014
rhumerus -27.0511 39.9427 -116.853
rradius 38.3096
rwrist 20.4253
rhand -2.00848 -57.9611
rfingers 7.12502
rthumb 23.6653 -446.524
lclavicle -4.14963e-014 7.31528e-014
lhumerus -62.5014 -62.2121 149.1
lradius 104.548
lwrist 28.0193
lhand 21.6137 -26.4459
lfingers 7.12502
lthumb 46.0353 -3.36608
rfemur -26.9391 19.5671 18.5199
rtibia 39.7457
rfoot -16.7819 1.44525
rtoes -30.643
lfemur -13.4068 -8.98716 -24.8196
ltibia 34.4196
lfoot -22.766 4.12205
ltoes 5.26072
985
root 8.55477 15.3077 -32.8875 -179.731 -16.8984 -177.646
lowerback 9.06122 0.330324 -0.897966
upperback -1.29083 -0.0278627 -3.73028
thorax -6.45446 -0.109616 -3.40556
lowerneck -6.44777 13.4684 6.46971
upperneck 2.10442 17.8111 -7.88465
head 3.24264 8.69744 -2.65378
rclavicle 2.60408e-014 4.92986e-014
rhumerus -27.3856 40.3032 -117.135
rradius 38.2798
rwrist 19.5892
rhand -1.71418 -58.2146
rfingers 7.12502
rthumb 23.9475 -446.741
lclavicle 2.60408e-014 4.92986e-014
lhumerus -62.7616 -62.0854 149.371
lradius 104.447
lwrist 27.9681
lhand 21.4221 -26.4161
lfingers 7.12502
lthumb 45.8575 -3.26251
rfemur -27.128 20.7065 17.8786
rtibia 38.2248
rfoot -17.1286 1.50151
rtoes -34.6514
lfemur -13.3361 -9.69871 -24.6744
ltibia 34.4804
lfoot -22.4283 3.70261
ltoes 4.56286
986
root 8.56607 15.3158 -32.9754 -179.919 -18.4958 -177.69
lowerback 8.59372 0.360794 -1.06939
upperback -0.715046 0.0454349 -3.55824
thorax -5.5763 -0.0547116 -3.11992
lowerneck -7.89358 13.8847 5.93284
upperneck 3.12187 18.4032 -7.93259
head 3.46076 8.91041 -2.14977
rclavicle -1.15295e-014 1.27222e-014
rhumerus -26.399 40.6926 -116.047
rradius 38.1491
rwrist 19.3824
rhand -1.74721 -57.9316
rfingers 7.12502
rthumb 23.9158 -446.462
lclavicle -1.15295e-014 1.27222e-014
lhumerus -61.6585 -62.8466 148.856
lradius 104.342
lwrist 28.1634
lhand 21.2714 -26.3533
lfingers 7.12502
lthumb 45.7176 -3.14207
rfemur -26.8844 21.8851 17.2072
rtibia 36.6486
rfoot -16.7489 2.89961
rtoes -28.0558
lfemur -13.027 -10.2606 -24.6575
ltibia 34.7559
lfoot -22.0728 3.09622
ltoes 2.94101
